# xmcd
# Copyright (C) 1995-1998 Ti Kan
#
# Track frame offsets:
#       150
#       14647
#       29475
#       45697
#       59600
#       76537
#       92010
#       109575
#       125100
#       137787
#       153750
#       170625
#       186225
#
# Disc length: 2553 seconds
#
# Revision: 0
# Processed by: cddbd v1.5.1PL0 Copyright (c) Steve Scherf et al.
# Submitted via: CD-Transfer v1.0
#
DISCID=ad09f70d
DTITLE=Boob - 
DYEAR=99
DGENRE=
TTITLE0=Grow
TTITLE1=Twiggy diet
TTITLE2=Northpole
TTITLE3=O.K.?
TTITLE4=Repeat
TTITLE5=Shave
TTITLE6=16moons
TTITLE7=Big
TTITLE8=Liar
TTITLE9=Nightshow
TTITLE10=Otaku
TTITLE11=George
TTITLE12=French fry Sunset
EXTD=
EXTT0=
EXTT1=
EXTT2=
EXTT3=
EXTT4=
EXTT5=
EXTT6=
EXTT7=
EXTT8=
EXTT9=
EXTT10=
EXTT11=
EXTT12=
PLAYORDER=
